<svg t="1588343140628" class="icon" viewBox="0 0 1024 1024" version="1.1" xmlns="http://www.w3.org/2000/svg" p-id="1011" width="128" height="128"><path d="M315.076923 39.384615c66.953846 0 118.153846 51.2 118.153846 118.153847v275.692307H157.538462c-66.953846 0-118.153846-51.2-118.153847-118.153846V39.384615h275.692308m0-39.384615H0v315.076923c0 86.646154 70.892308 157.538462 157.538462 157.538462h315.076923V157.538462c0-86.646154-70.892308-157.538462-157.538462-157.538462zM984.615385 39.384615v275.692308c0 66.953846-51.2 118.153846-118.153847 118.153846h-275.692307V157.538462c0-66.953846 51.2-118.153846 118.153846-118.153847h275.692308m39.384615-39.384615h-315.076923c-86.646154 0-157.538462 70.892308-157.538462 157.538462v315.076923h315.076923c86.646154 0 157.538462-70.892308 157.538462-157.538462V0zM866.461538 590.769231c66.953846 0 118.153846 51.2 118.153847 118.153846v275.692308h-275.692308c-66.953846 0-118.153846-51.2-118.153846-118.153847v-275.692307h275.692307m0-39.384616h-315.076923v315.076923c0 86.646154 70.892308 157.538462 157.538462 157.538462h315.076923v-315.076923c0-86.646154-70.892308-157.538462-157.538462-157.538462zM433.230769 590.769231v275.692307c0 66.953846-51.2 118.153846-118.153846 118.153847H39.384615v-275.692308c0-66.953846 51.2-118.153846 118.153847-118.153846h275.692307m39.384616-39.384616H157.538462c-86.646154 0-157.538462 70.892308-157.538462 157.538462v315.076923h315.076923c86.646154 0 157.538462-70.892308 157.538462-157.538462v-315.076923z" fill="" p-id="1012"></path></svg>