<?xml version="1.0" standalone="no"?><!DOCTYPE svg PUBLIC "-//W3C//DTD SVG 1.1//EN" "http://www.w3.org/Graphics/SVG/1.1/DTD/svg11.dtd"><svg t="1588859244059" class="icon" viewBox="0 0 1024 1024" version="1.1" xmlns="http://www.w3.org/2000/svg" p-id="1120" xmlns:xlink="http://www.w3.org/1999/xlink" width="128" height="128"><defs><style type="text/css"></style></defs><path d="M669.538462 0H157.538462C70.892308 0 0 70.892308 0 157.538462v708.923076c0 86.646154 70.892308 157.538462 157.538462 157.538462h708.923076c86.646154 0 157.538462-70.892308 157.538462-157.538462V275.692308h-39.384615v590.76923c0 66.953846-51.2 118.153846-118.153847 118.153847H157.538462c-66.953846 0-118.153846-51.2-118.153847-118.153847V157.538462c0-66.953846 51.2-118.153846 118.153847-118.153847h512V0z" fill="" p-id="1121"></path><path d="M177.230769 236.307692h275.692308c11.815385 0 19.692308 7.876923 19.692308 19.692308s-7.876923 19.692308-19.692308 19.692308h-275.692308c-11.815385 0-19.692308-7.876923-19.692307-19.692308s7.876923-19.692308 19.692307-19.692308zM177.230769 512h275.692308c11.815385 0 19.692308 7.876923 19.692308 19.692308s-7.876923 19.692308-19.692308 19.692307h-275.692308c-11.815385 0-19.692308-7.876923-19.692307-19.692307s7.876923-19.692308 19.692307-19.692308zM972.8 82.707692L555.323077 500.184615c-7.876923 7.876923-19.692308 7.876923-27.569231 0-7.876923-7.876923-7.876923-19.692308 0-27.56923L945.230769 55.138462c7.876923-7.876923 19.692308-7.876923 27.569231 0 7.876923 3.938462 7.876923 19.692308 0 27.56923zM177.230769 787.692308h669.538462c11.815385 0 19.692308 7.876923 19.692307 19.692307s-7.876923 19.692308-19.692307 19.692308h-669.538462c-11.815385 0-19.692308-7.876923-19.692307-19.692308s7.876923-19.692308 19.692307-19.692307z" fill="" p-id="1122"></path></svg>